<svg viewBox="0 0 400 400" xmlns="http://www.w3.org/2000/svg">
  <rect width="400" height="400" fill="#fef2f6"/>
  <g>
    <path d="M110 230 a40 40 0 0 1 10 -79 a55 55 0 0 1 105 -18 a48 48 0 0 1 55 70 a40 40 0 0 1 -10 27 Z"
      fill="#ffffff" stroke="#e7c9d6" stroke-width="5"/>
    <path d="M150 150 a90 90 0 0 1 180 0" fill="none" stroke="#f3a6a6" stroke-width="10"/>
    <path d="M160 150 a80 80 0 0 1 160 0" fill="none" stroke="#f6c97d" stroke-width="10"/>
    <path d="M170 150 a70 70 0 0 1 140 0" fill="none" stroke="#9fd1b9" stroke-width="10"/>
    <g fill="#9cc9e0">
      <circle cx="140" cy="250" r="6"/>
      <circle cx="170" cy="265" r="6"/>
      <circle cx="200" cy="250" r="6"/>
    </g>
    <circle cx="150" cy="200" r="6" fill="#3d4d55"/>
    <circle cx="190" cy="200" r="6" fill="#3d4d55"/>
    <path d="M150 215 Q 170 228 190 215" fill="none" stroke="#3d4d55" stroke-width="5" stroke-linecap="round"/>
  </g>
</svg>
